<svg xmlns="http://www.w3.org/2000/svg" xmlns:xlink="http://www.w3.org/1999/xlink" width="500" zoomAndPan="magnify" viewBox="0 0 375 374.999991" height="500" preserveAspectRatio="xMidYMid meet" version="1.0"><defs><g/><clipPath id="8a05c0e8e9"><path d="M 24.863281 24.863281 L 350.136719 24.863281 L 350.136719 350.136719 L 24.863281 350.136719 Z M 24.863281 24.863281 " clip-rule="nonzero"/></clipPath><clipPath id="bc48c4903e"><path d="M 187.5 24.863281 C 97.679688 24.863281 24.863281 97.679688 24.863281 187.5 C 24.863281 277.320312 97.679688 350.136719 187.5 350.136719 C 277.320312 350.136719 350.136719 277.320312 350.136719 187.5 C 350.136719 97.679688 277.320312 24.863281 187.5 24.863281 " clip-rule="nonzero"/></clipPath><clipPath id="f7c15e47ed"><path d="M 35.59375 35.59375 L 339.34375 35.59375 L 339.34375 339.34375 L 35.59375 339.34375 Z M 35.59375 35.59375 " clip-rule="nonzero"/></clipPath><clipPath id="68bdd2d88d"><path d="M 187.46875 35.59375 C 103.589844 35.59375 35.59375 103.589844 35.59375 187.46875 C 35.59375 271.347656 103.589844 339.34375 187.46875 339.34375 C 271.347656 339.34375 339.34375 271.347656 339.34375 187.46875 C 339.34375 103.589844 271.347656 35.59375 187.46875 35.59375 " clip-rule="nonzero"/></clipPath><clipPath id="ea91475db9"><path d="M 47.710938 186.09375 L 84.460938 186.09375 L 84.460938 222.84375 L 47.710938 222.84375 Z M 47.710938 186.09375 " clip-rule="nonzero"/></clipPath><clipPath id="2e60ec6b22"><path d="M 288.316406 182.605469 L 325.066406 182.605469 L 325.066406 219.355469 L 288.316406 219.355469 Z M 288.316406 182.605469 " clip-rule="nonzero"/></clipPath><clipPath id="0aac7a5e6c"><path d="M 158 107.691406 L 217 107.691406 L 217 166 L 158 166 Z M 158 107.691406 " clip-rule="nonzero"/></clipPath><clipPath id="bcd4750dad"><path d="M 112 161 L 262.730469 161 L 262.730469 267.441406 L 112 267.441406 Z M 112 161 " clip-rule="nonzero"/></clipPath></defs><g clip-path="url(#8a05c0e8e9)"><g clip-path="url(#bc48c4903e)"><path fill="#008000" d="M 24.863281 24.863281 L 350.136719 24.863281 L 350.136719 350.136719 L 24.863281 350.136719 Z M 24.863281 24.863281 " fill-opacity="1" fill-rule="nonzero"/></g></g><g clip-path="url(#f7c15e47ed)"><g clip-path="url(#68bdd2d88d)"><path stroke-linecap="butt" transform="matrix(0.749855, 0, 0, 0.749855, 35.594929, 35.594924)" fill="none" stroke-linejoin="miter" d="M 202.537504 -0.00156625 C 90.677381 -0.00156625 -0.00157225 90.677387 -0.00157225 202.53751 C -0.00157225 314.397632 90.677381 405.076585 202.537504 405.076585 C 314.397626 405.076585 405.076579 314.397632 405.076579 202.53751 C 405.076579 90.677387 314.397626 -0.00156625 202.537504 -0.00156625 " stroke="#ffffff" stroke-width="6" stroke-opacity="1" stroke-miterlimit="4"/></g></g><g clip-path="url(#ea91475db9)"><path fill="#ffffff" d="M 84.464844 204.472656 C 74.984375 203.460938 69.789062 202.527344 67.132812 203.425781 C 68.03125 200.769531 67.101562 195.578125 66.089844 186.09375 C 65.078125 195.578125 64.144531 200.769531 65.042969 203.425781 C 62.386719 202.527344 57.195312 203.460938 47.714844 204.472656 C 57.195312 205.484375 62.386719 206.414062 65.042969 205.515625 C 64.144531 208.171875 65.078125 213.367188 66.089844 222.847656 C 67.101562 213.367188 68.03125 208.171875 67.132812 205.515625 C 69.789062 206.414062 74.984375 205.484375 84.464844 204.472656 Z M 84.464844 204.472656 " fill-opacity="1" fill-rule="nonzero"/></g><g clip-path="url(#2e60ec6b22)"><path fill="#ffffff" d="M 325.066406 200.980469 C 315.585938 199.96875 310.390625 199.035156 307.734375 199.9375 C 308.632812 197.277344 307.703125 192.085938 306.691406 182.605469 C 305.679688 192.085938 304.746094 197.277344 305.644531 199.9375 C 302.988281 199.035156 297.796875 199.96875 288.316406 200.980469 C 297.796875 201.992188 302.988281 202.925781 305.644531 202.023438 C 304.746094 204.683594 305.679688 209.875 306.691406 219.355469 C 307.703125 209.875 308.632812 204.683594 307.734375 202.023438 C 310.390625 202.925781 315.585938 201.992188 325.066406 200.980469 Z M 325.066406 200.980469 " fill-opacity="1" fill-rule="nonzero"/></g><g clip-path="url(#0aac7a5e6c)"><path fill="#f4f4f4" d="M 216.140625 136.554688 C 216.140625 137.5 216.09375 138.441406 216 139.382812 C 215.910156 140.324219 215.769531 141.257812 215.585938 142.183594 C 215.402344 143.113281 215.175781 144.027344 214.902344 144.933594 C 214.628906 145.835938 214.308594 146.726562 213.949219 147.601562 C 213.589844 148.472656 213.1875 149.328125 212.742188 150.160156 C 212.296875 150.996094 211.8125 151.804688 211.289062 152.589844 C 210.765625 153.375 210.203125 154.132812 209.605469 154.863281 C 209.007812 155.597656 208.375 156.296875 207.710938 156.964844 C 207.042969 157.632812 206.34375 158.265625 205.617188 158.867188 C 204.886719 159.464844 204.132812 160.027344 203.347656 160.554688 C 202.5625 161.078125 201.757812 161.5625 200.925781 162.007812 C 200.09375 162.453125 199.242188 162.859375 198.371094 163.21875 C 197.5 163.582031 196.613281 163.898438 195.710938 164.175781 C 194.808594 164.449219 193.894531 164.679688 192.972656 164.863281 C 192.046875 165.046875 191.117188 165.1875 190.175781 165.277344 C 189.238281 165.371094 188.300781 165.417969 187.355469 165.417969 C 186.414062 165.417969 185.472656 165.371094 184.535156 165.277344 C 183.597656 165.1875 182.664062 165.046875 181.742188 164.863281 C 180.816406 164.679688 179.902344 164.449219 179 164.175781 C 178.097656 163.898438 177.210938 163.582031 176.339844 163.21875 C 175.46875 162.859375 174.621094 162.453125 173.789062 162.007812 C 172.957031 161.5625 172.148438 161.078125 171.363281 160.554688 C 170.582031 160.027344 169.824219 159.464844 169.097656 158.867188 C 168.367188 158.265625 167.667969 157.632812 167.003906 156.964844 C 166.335938 156.296875 165.703125 155.597656 165.105469 154.863281 C 164.507812 154.132812 163.945312 153.375 163.421875 152.589844 C 162.898438 151.804688 162.414062 150.996094 161.972656 150.160156 C 161.527344 149.328125 161.125 148.472656 160.761719 147.601562 C 160.402344 146.726562 160.085938 145.835938 159.8125 144.933594 C 159.539062 144.027344 159.308594 143.113281 159.125 142.183594 C 158.941406 141.257812 158.804688 140.324219 158.710938 139.382812 C 158.617188 138.441406 158.574219 137.5 158.574219 136.554688 C 158.574219 135.609375 158.617188 134.667969 158.710938 133.726562 C 158.804688 132.785156 158.941406 131.851562 159.125 130.921875 C 159.308594 129.996094 159.539062 129.082031 159.8125 128.175781 C 160.085938 127.273438 160.402344 126.382812 160.761719 125.507812 C 161.125 124.636719 161.527344 123.78125 161.972656 122.949219 C 162.414062 122.113281 162.898438 121.304688 163.421875 120.519531 C 163.945312 119.734375 164.507812 118.976562 165.105469 118.246094 C 165.703125 117.511719 166.335938 116.8125 167.003906 116.144531 C 167.667969 115.476562 168.367188 114.84375 169.097656 114.242188 C 169.824219 113.644531 170.582031 113.082031 171.363281 112.554688 C 172.148438 112.03125 172.957031 111.546875 173.789062 111.101562 C 174.621094 110.652344 175.46875 110.25 176.339844 109.890625 C 177.210938 109.527344 178.097656 109.207031 179 108.933594 C 179.902344 108.660156 180.816406 108.429688 181.742188 108.246094 C 182.664062 108.0625 183.597656 107.921875 184.535156 107.832031 C 185.472656 107.738281 186.414062 107.691406 187.355469 107.691406 C 188.300781 107.691406 189.238281 107.738281 190.175781 107.832031 C 191.117188 107.921875 192.046875 108.0625 192.972656 108.246094 C 193.894531 108.429688 194.808594 108.660156 195.710938 108.933594 C 196.613281 109.207031 197.5 109.527344 198.371094 109.890625 C 199.242188 110.25 200.09375 110.652344 200.925781 111.101562 C 201.757812 111.546875 202.5625 112.03125 203.347656 112.554688 C 204.132812 113.082031 204.886719 113.644531 205.617188 114.242188 C 206.34375 114.84375 207.042969 115.476562 207.710938 116.144531 C 208.375 116.8125 209.007812 117.511719 209.605469 118.246094 C 210.203125 118.976562 210.765625 119.734375 211.289062 120.519531 C 211.8125 121.304688 212.296875 122.113281 212.742188 122.949219 C 213.1875 123.78125 213.589844 124.636719 213.949219 125.507812 C 214.308594 126.382812 214.628906 127.273438 214.902344 128.175781 C 215.175781 129.082031 215.402344 129.996094 215.585938 130.921875 C 215.769531 131.851562 215.910156 132.785156 216 133.726562 C 216.09375 134.667969 216.140625 135.609375 216.140625 136.554688 Z M 216.140625 136.554688 " fill-opacity="1" fill-rule="nonzero"/></g><g clip-path="url(#bcd4750dad)"><path fill="#f4f4f4" d="M 256.1875 242.007812 L 256.1875 220.988281 C 259.875 219.40625 262.445312 215.898438 262.445312 211.816406 L 262.445312 204.351562 C 262.445312 200.269531 259.875 196.761719 256.1875 195.179688 L 256.1875 176.710938 C 256.1875 174.507812 254.835938 173.109375 252.96875 173.109375 C 252.5 173.109375 251.996094 173.195312 251.472656 173.382812 L 235.730469 179.035156 C 229.203125 170.847656 220.480469 164.683594 210.171875 161.519531 C 204.15625 167.054688 196.144531 170.4375 187.355469 170.4375 C 178.574219 170.4375 170.5625 167.058594 164.546875 161.527344 C 153.800781 164.824219 144.773438 171.371094 138.164062 180.082031 L 123.269531 175.066406 C 122.773438 174.898438 122.292969 174.816406 121.839844 174.816406 C 119.921875 174.816406 118.527344 176.253906 118.527344 178.484375 L 118.527344 195.179688 C 114.839844 196.761719 112.269531 200.269531 112.269531 204.351562 L 112.269531 211.816406 C 112.269531 215.898438 114.839844 219.40625 118.527344 220.988281 L 118.527344 241.121094 C 118.527344 243.882812 120.667969 246.835938 123.289062 247.683594 L 182.230469 266.777344 C 183.578125 267.214844 185.375 267.433594 187.15625 267.433594 C 188.835938 267.433594 190.503906 267.238281 191.777344 266.847656 L 251.402344 248.5 C 254.035156 247.691406 256.1875 244.769531 256.1875 242.007812 Z M 184.851562 262.238281 C 184.40625 262.167969 184.027344 262.085938 183.765625 262 L 124.828125 242.90625 C 124.269531 242.726562 123.53125 241.707031 123.53125 241.121094 L 123.53125 221.859375 C 129.113281 221.550781 133.542969 217.179688 133.542969 211.816406 L 133.542969 204.351562 C 133.542969 198.988281 129.113281 194.617188 123.53125 194.308594 L 123.53125 180.449219 L 180.652344 199.695312 C 182.070312 200.171875 183.550781 200.402344 184.851562 200.507812 Z M 251.179688 194.308594 C 245.601562 194.617188 241.167969 198.988281 241.167969 204.351562 L 241.167969 211.816406 C 241.167969 217.179688 245.601562 221.550781 251.179688 221.859375 L 251.179688 242.007812 C 251.179688 242.558594 250.457031 243.539062 249.933594 243.699219 L 190.308594 262.046875 C 190.175781 262.089844 190.015625 262.125 189.859375 262.160156 L 189.859375 200.375 C 191.144531 200.207031 192.355469 199.941406 193.390625 199.570312 L 251.179688 178.820312 Z M 251.179688 194.308594 " fill-opacity="1" fill-rule="nonzero"/></g><g fill="#e5b139" fill-opacity="1"><g transform="translate(63.169723, 237.199768)"><g><path d="M 1.46875 2.882812 L 13.328125 -3.152344 L 3.46875 6.816406 L 4.25 8.351562 L 18.195312 6.203125 L 6.25 12.28125 L 7.042969 13.832031 L 19.914062 7.28125 L 18.488281 4.480469 L 5.777344 6.59375 L 14.964844 -2.4375 L 13.550781 -5.21875 L 0.679688 1.332031 Z M 1.46875 2.882812 "/></g></g></g><g fill="#e5b139" fill-opacity="1"><g transform="translate(74.028465, 257.212575)"><g><path d="M 1.1875 1.640625 L 4.796875 0.597656 L 8.632812 5.90625 L 6.507812 9.007812 L 7.539062 10.433594 L 16.128906 -2.335938 L 14.976562 -3.929688 L 0.15625 0.214844 Z M 14.113281 -2.089844 L 9.546875 4.523438 L 6.398438 0.164062 Z M 14.113281 -2.089844 "/></g></g></g><g fill="#e5b139" fill-opacity="1"><g transform="translate(85.354892, 272.244004)"><g><path d="M 2.246094 2.328125 L 11.359375 -6.464844 L 6.742188 6.988281 L 8.503906 8.8125 L 18.898438 -1.21875 L 17.703125 -2.457031 L 8.5625 6.363281 L 13.191406 -7.128906 L 11.429688 -8.953125 L 1.039062 1.074219 Z M 2.246094 2.328125 "/></g></g></g><g fill="#e5b139" fill-opacity="1"><g transform="translate(99.16075, 285.931675)"><g><path d="M 1.597656 1.242188 L 4.773438 -0.773438 L 9.941406 3.25 L 8.769531 6.820312 L 10.160156 7.902344 L 14.828125 -6.765625 L 13.273438 -7.972656 L 0.210938 0.164062 Z M 12.960938 -5.964844 L 10.433594 1.664062 L 6.1875 -1.636719 Z M 12.960938 -5.964844 "/></g></g></g><g fill="#e5b139" fill-opacity="1"><g transform="translate(114.258115, 297.235498)"><g><path d="M 6.667969 3.972656 C 8.253906 4.867188 10.253906 5.167969 11.898438 4.335938 L 10.886719 6.132812 L 12.269531 6.914062 L 15.976562 0.332031 L 11.476562 -2.203125 L 10.714844 -0.851562 L 13.730469 0.847656 C 12.320312 3.355469 9.871094 3.996094 7.414062 2.613281 C 4.460938 0.949219 4.359375 -2.257812 5.910156 -5.015625 C 7.367188 -7.601562 10.066406 -9.34375 13.132812 -7.613281 C 14.964844 -6.582031 15.707031 -4.96875 15.496094 -3.285156 L 17.195312 -2.328125 C 17.710938 -4.863281 16.730469 -7.367188 13.925781 -8.949219 C 9.835938 -11.253906 6.230469 -9.132812 4.363281 -5.820312 C 2.507812 -2.519531 2.546875 1.652344 6.667969 3.972656 Z M 6.667969 3.972656 "/></g></g></g><g fill="#e5b139" fill-opacity="1"><g transform="translate(132.767046, 307.053183)"><g><path d="M 10.089844 3.921875 L 10.660156 2.460938 L 3.585938 -0.292969 L 5.363281 -4.859375 L 11.609375 -2.433594 L 12.171875 -3.878906 L 5.925781 -6.308594 L 7.679688 -10.824219 L 14.757812 -8.074219 L 15.324219 -9.539062 L 6.628906 -12.917969 L 1.394531 0.542969 Z M 10.089844 3.921875 "/></g></g></g><g fill="#e5b139" fill-opacity="1"><g transform="translate(149.064123, 313.146555)"><g><path d="M 3.15625 0.710938 L 6.085938 -12.269531 L 7.460938 1.683594 L 9.140625 2.0625 L 16.390625 -10.042969 L 13.441406 3.03125 L 15.140625 3.414062 L 18.320312 -10.675781 L 15.253906 -11.367188 L 8.765625 -0.234375 L 7.683594 -13.074219 L 4.636719 -13.761719 L 1.457031 0.328125 Z M 3.15625 0.710938 "/></g></g></g><g fill="#e5b139" fill-opacity="1"><g transform="translate(171.368195, 317.534356)"><g><path d="M 10.800781 0.789062 L 10.914062 -0.78125 L 3.34375 -1.332031 L 3.699219 -6.222656 L 10.382812 -5.734375 L 10.496094 -7.28125 L 3.8125 -7.769531 L 4.164062 -12.601562 L 11.734375 -12.050781 L 11.847656 -13.617188 L 2.542969 -14.296875 L 1.492188 0.109375 Z M 10.800781 0.789062 "/></g></g></g><g fill="#e5b139" fill-opacity="1"><g transform="translate(188.65195, 318.480434)"><g><path d="M 3.230469 -0.207031 L 2.425781 -12.84375 L 9.691406 -0.617188 L 12.222656 -0.777344 L 11.304688 -15.191406 L 9.585938 -15.082031 L 10.394531 -2.40625 L 3.105469 -14.671875 L 0.574219 -14.507812 L 1.492188 -0.09375 Z M 3.230469 -0.207031 "/></g></g></g><g fill="#e5b139" fill-opacity="1"><g transform="translate(207.992625, 316.801225)"><g><path d="M 6.75 -1.378906 L 4.175781 -13.992188 L 8.980469 -14.972656 L 8.664062 -16.511719 L -2.628906 -14.203125 L -2.316406 -12.664062 L 2.46875 -13.640625 L 5.042969 -1.03125 Z M 6.75 -1.378906 "/></g></g></g><g fill="#e5b139" fill-opacity="1"><g transform="translate(225.040673, 312.846786)"><g/></g></g><g fill="#e5b139" fill-opacity="1"><g transform="translate(235.285237, 309.506413)"><g><path d="M 6.226562 -2.53125 C 9.242188 -3.855469 10.183594 -6.089844 9.15625 -8.429688 C 7.886719 -11.320312 5.289062 -10.78125 2.917969 -10.296875 C 0.984375 -9.902344 -0.78125 -9.539062 -1.488281 -11.152344 C -2.046875 -12.417969 -1.46875 -13.644531 0.316406 -14.425781 C 1.773438 -15.066406 3.472656 -15.109375 4.644531 -13.476562 L 6.1875 -14.152344 C 4.558594 -16.683594 1.945312 -16.839844 -0.289062 -15.855469 C -2.871094 -14.722656 -4.011719 -12.566406 -3.023438 -10.3125 C -1.878906 -7.714844 0.527344 -8.210938 2.777344 -8.683594 C 4.824219 -9.109375 6.777344 -9.511719 7.609375 -7.625 C 8.300781 -6.046875 7.527344 -4.796875 5.671875 -3.980469 C 4.027344 -3.257812 1.925781 -3.101562 0.582031 -5.03125 L -1.03125 -4.324219 C 0.722656 -1.558594 3.613281 -1.378906 6.226562 -2.53125 Z M 6.226562 -2.53125 "/></g></g></g><g fill="#e5b139" fill-opacity="1"><g transform="translate(251.959421, 301.758067)"><g><path d="M 6.226562 -3.824219 L 3.335938 -8.535156 L 3.234375 -18.933594 L 1.539062 -17.894531 L 1.625 -9.507812 L -5.765625 -13.40625 L -7.492188 -12.347656 L 1.785156 -7.582031 L 4.679688 -2.871094 Z M 6.226562 -3.824219 "/></g></g></g><g fill="#e5b139" fill-opacity="1"><g transform="translate(267.438278, 291.800099)"><g><path d="M 5.3125 -4.117188 C 7.859375 -6.207031 8.164062 -8.613281 6.542969 -10.585938 C 4.535156 -13.03125 2.183594 -11.808594 0.03125 -10.703125 C -1.726562 -9.800781 -3.328125 -8.976562 -4.445312 -10.335938 C -5.320312 -11.40625 -5.09375 -12.742188 -3.585938 -13.976562 C -2.359375 -14.988281 -0.734375 -15.484375 0.835938 -14.226562 L 2.136719 -15.296875 C -0.113281 -17.292969 -2.671875 -16.738281 -4.558594 -15.1875 C -6.738281 -13.398438 -7.253906 -11.015625 -5.695312 -9.113281 C -3.890625 -6.917969 -1.710938 -8.050781 0.332031 -9.113281 C 2.1875 -10.074219 3.960938 -10.988281 5.269531 -9.394531 C 6.363281 -8.0625 5.953125 -6.648438 4.386719 -5.363281 C 2.996094 -4.222656 1.015625 -3.503906 -0.800781 -5 L -2.160156 -3.882812 C 0.273438 -1.695312 3.105469 -2.304688 5.3125 -4.117188 Z M 5.3125 -4.117188 "/></g></g></g><g fill="#e5b139" fill-opacity="1"><g transform="translate(281.380337, 279.843107)"><g><path d="M 4.695312 -5.042969 L -4.726562 -13.8125 L -1.386719 -17.402344 L -2.539062 -18.472656 L -10.390625 -10.035156 L -9.242188 -8.964844 L -5.914062 -12.539062 L 3.507812 -3.769531 Z M 4.695312 -5.042969 "/></g></g></g><g fill="#e5b139" fill-opacity="1"><g transform="translate(293.134744, 266.661564)"><g><path d="M 6.289062 -8.8125 L 5.011719 -9.726562 L 0.601562 -3.546875 L -3.390625 -6.394531 L 0.503906 -11.851562 L -0.761719 -12.75 L -4.652344 -7.296875 L -8.597656 -10.113281 L -4.1875 -16.289062 L -5.464844 -17.203125 L -10.886719 -9.605469 L 0.867188 -1.21875 Z M 6.289062 -8.8125 "/></g></g></g><g fill="#e5b139" fill-opacity="1"><g transform="translate(303.052735, 252.363771)"><g><path d="M 1.46875 -2.882812 L -10.390625 -8.921875 L 3.46875 -6.816406 L 4.25 -8.351562 L -5.691406 -18.359375 L 6.25 -12.28125 L 7.042969 -13.832031 L -5.832031 -20.386719 L -7.253906 -17.585938 L 1.933594 -8.554688 L -10.777344 -10.667969 L -12.191406 -7.882812 L 0.679688 -1.332031 Z M 1.46875 -2.882812 "/></g></g></g><g fill="#e5b139" fill-opacity="1"><g transform="translate(73.930252, 179.972298)"><g><path d="M 2.171875 -11.027344 C 2.984375 -16.417969 0.742188 -20.125 -3.628906 -20.785156 C -8.785156 -21.5625 -10.539062 -17.058594 -11.949219 -13.429688 C -12.917969 -10.980469 -13.738281 -8.898438 -15.339844 -9.140625 C -16.738281 -9.351562 -17.101562 -10.898438 -16.878906 -12.382812 C -16.546875 -14.570312 -15.183594 -15.914062 -13.207031 -16.152344 L -12.394531 -21.542969 C -17.453125 -21.589844 -20.527344 -17.824219 -21.230469 -13.160156 C -21.917969 -8.613281 -20.289062 -4.582031 -15.6875 -3.886719 C -10.789062 -3.148438 -9.125 -7.457031 -7.71875 -11.058594 C -6.738281 -13.59375 -5.90625 -15.765625 -4.15625 -15.5 C -2.410156 -15.234375 -1.933594 -13.4375 -2.203125 -11.660156 C -2.507812 -9.648438 -3.570312 -7.75 -6.597656 -7.433594 L -7.410156 -2.042969 C -1.113281 -1.507812 1.539062 -6.832031 2.171875 -11.027344 Z M 2.171875 -11.027344 "/></g></g></g><g fill="#e5b139" fill-opacity="1"><g transform="translate(77.009832, 159.906312)"><g><path d="M 3.691406 -11.257812 L -13.195312 -16.792969 L -11.222656 -22.816406 L -15.703125 -24.285156 L -21.292969 -7.230469 L -16.8125 -5.761719 L -14.839844 -11.78125 L 2.046875 -6.246094 Z M 3.691406 -11.257812 "/></g></g></g><g fill="#e5b139" fill-opacity="1"><g transform="translate(82.315497, 142.997821)"><g><path d="M 5.660156 -9.574219 C 8.910156 -15.6875 6.839844 -19.761719 2.285156 -22.183594 L -10.152344 -28.796875 L -12.640625 -24.113281 L -0.207031 -17.5 C 1.824219 -16.421875 3.101562 -14.804688 1.496094 -11.789062 C -0.121094 -8.742188 -2.175781 -8.902344 -4.203125 -9.980469 L -16.640625 -16.59375 L -19.132812 -11.910156 L -6.695312 -5.296875 C -2.140625 -2.875 2.394531 -3.433594 5.660156 -9.574219 Z M 5.660156 -9.574219 "/></g></g></g><g fill="#e5b139" fill-opacity="1"><g transform="translate(92.331503, 124.076802)"><g><path d="M 5.34375 -6.707031 C 10.121094 -12.699219 9.613281 -18.492188 3.921875 -23.027344 C -1.722656 -27.527344 -7.460938 -26.714844 -12.238281 -20.722656 L -16.480469 -15.398438 L 1.101562 -1.382812 Z M -9.507812 -16.585938 L -8.585938 -17.738281 C -6.035156 -20.941406 -2.707031 -21.566406 0.632812 -18.902344 C 4.207031 -16.054688 4.320312 -12.988281 1.621094 -9.597656 L 0.703125 -8.445312 Z M -9.507812 -16.585938 "/></g></g></g><g fill="#e5b139" fill-opacity="1"><g transform="translate(105.287242, 107.934957)"><g><path d="M 12.765625 -11.410156 L 9.625 -14.925781 L 2.109375 -8.210938 L -0.679688 -11.328125 L 6.109375 -17.398438 L 2.988281 -20.890625 L -3.800781 -14.824219 L -6.589844 -17.945312 L 0.925781 -24.660156 L -2.214844 -28.175781 L -13.664062 -17.945312 L 1.320312 -1.179688 Z M 12.765625 -11.410156 "/></g></g></g><g fill="#e5b139" fill-opacity="1"><g transform="translate(118.294567, 95.965955)"><g><path d="M 5.984375 -3.710938 L -1.25 -15.382812 L 13.324219 -8.261719 L 17.882812 -11.089844 L 6.035156 -30.199219 L 1.550781 -27.417969 L 8.742188 -15.824219 L -5.789062 -22.867188 L -10.347656 -20.042969 L 1.503906 -0.933594 Z M 5.984375 -3.710938 "/></g></g></g><g fill="#e5b139" fill-opacity="1"><g transform="translate(137.109586, 84.449979)"><g><path d="M 11 -4.402344 L 4.398438 -20.898438 L 10.28125 -23.253906 L 8.527344 -27.632812 L -8.132812 -20.964844 L -6.382812 -16.585938 L -0.5 -18.941406 L 6.101562 -2.441406 Z M 11 -4.402344 "/></g></g></g><g fill="#e5b139" fill-opacity="1"><g transform="translate(154.102579, 77.96148)"><g/></g></g><g fill="#e5b139" fill-opacity="1"><g transform="translate(161.099098, 75.585547)"><g><path d="M 5.601562 -0.8125 L 6.21875 -4.980469 L 13.625 -6.050781 L 15.398438 -2.230469 L 20.941406 -3.03125 L 10.105469 -24.183594 L 4.449219 -23.363281 L 0.0585938 -0.0078125 Z M 8.117188 -17.96875 L 11.601562 -10.375 L 6.933594 -9.699219 Z M 8.117188 -17.96875 "/></g></g></g><g fill="#e5b139" fill-opacity="1"><g transform="translate(181.423675, 72.701688)"><g><path d="M 11.84375 0.285156 L 12.273438 -17.480469 L 18.605469 -17.328125 L 18.71875 -22.039062 L 0.777344 -22.472656 L 0.664062 -17.757812 L 7 -17.605469 L 6.570312 0.160156 Z M 11.84375 0.285156 "/></g></g></g><g fill="#e5b139" fill-opacity="1"><g transform="translate(199.2518, 73.084746)"><g><path d="M 11.652344 2.128906 L 14.847656 -15.351562 L 21.078125 -14.214844 L 21.925781 -18.851562 L 4.273438 -22.078125 L 3.425781 -17.4375 L 9.65625 -16.300781 L 6.464844 1.179688 Z M 11.652344 2.128906 "/></g></g></g><g fill="#e5b139" fill-opacity="1"><g transform="translate(216.802725, 76.24477)"><g><path d="M 16.160156 5.664062 L 17.71875 1.210938 L 8.207031 -2.121094 L 9.589844 -6.070312 L 18.183594 -3.058594 L 19.734375 -7.480469 L 11.140625 -10.492188 L 12.523438 -14.441406 L 22.035156 -11.109375 L 23.59375 -15.558594 L 9.105469 -20.636719 L 1.667969 0.585938 Z M 16.160156 5.664062 "/></g></g></g><g fill="#e5b139" fill-opacity="1"><g transform="translate(233.566867, 81.848474)"><g><path d="M 6.140625 3.445312 L 12.863281 -8.53125 L 13.671875 7.671875 L 18.351562 10.296875 L 29.355469 -9.3125 L 24.753906 -11.894531 L 18.078125 0.00390625 L 17.222656 -16.121094 L 12.546875 -18.746094 L 1.542969 0.867188 Z M 6.140625 3.445312 "/></g></g></g><g fill="#e5b139" fill-opacity="1"><g transform="translate(252.73522, 92.591091)"><g><path d="M 6.570312 5.511719 C 12.441406 10.433594 18.246094 10.070312 22.921875 4.492188 C 27.5625 -1.039062 26.890625 -6.792969 21.019531 -11.71875 L 15.804688 -16.09375 L 1.355469 1.136719 Z M 16.816406 -9.089844 L 17.945312 -8.144531 C 21.082031 -5.511719 21.628906 -2.167969 18.882812 1.105469 C 15.945312 4.605469 12.875 4.644531 9.554688 1.859375 L 8.425781 0.914062 Z M 16.816406 -9.089844 "/></g></g></g><g fill="#e5b139" fill-opacity="1"><g transform="translate(268.573919, 105.785541)"><g><path d="M 3.613281 4.355469 L 7.492188 2.703125 L 12.273438 8.464844 L 9.9375 11.972656 L 13.515625 16.28125 L 25.902344 -4 L 22.25 -8.398438 L 0.0390625 0.046875 Z M 19.566406 -2.453125 L 14.902344 4.480469 L 11.890625 0.851562 Z M 19.566406 -2.453125 "/></g></g></g><g fill="#e5b139" fill-opacity="1"><g transform="translate(281.719255, 121.389371)"><g><path d="M 3.421875 6.15625 L 15.425781 -0.511719 L 7.613281 13.707031 L 10.21875 18.394531 L 29.875 7.472656 L 27.3125 2.863281 L 15.386719 9.488281 L 23.121094 -4.683594 L 20.515625 -9.375 L 0.859375 1.546875 Z M 3.421875 6.15625 "/></g></g></g><g fill="#e5b139" fill-opacity="1"><g transform="translate(292.449175, 140.515611)"><g><path d="M 3.285156 11.730469 C 5.117188 17.363281 9.292969 19.632812 14.097656 18.691406 L 12.3125 13.195312 C 9.960938 13.589844 8.425781 12.292969 7.734375 10.160156 C 6.632812 6.769531 8.65625 4.035156 12.71875 2.714844 C 16.753906 1.402344 19.972656 2.433594 21.074219 5.824219 C 21.765625 7.957031 21.292969 9.9375 19.207031 10.957031 L 20.992188 16.449219 C 25.40625 14.394531 27.425781 10.113281 25.59375 4.480469 C 23.21875 -2.835938 16.96875 -4.523438 10.996094 -2.582031 C 5.027344 -0.640625 0.90625 4.414062 3.285156 11.730469 Z M 3.285156 11.730469 "/></g></g></g><g fill="#e5b139" fill-opacity="1"><g transform="translate(299.185356, 161.670333)"><g><path d="M 2.378906 16.957031 L 7.046875 16.300781 L 5.648438 6.320312 L 9.792969 5.738281 L 11.054688 14.757812 L 15.695312 14.105469 L 14.433594 5.089844 L 18.578125 4.507812 L 19.976562 14.488281 L 24.644531 13.835938 L 22.511719 -1.371094 L 0.246094 1.75 Z M 2.378906 16.957031 "/></g></g></g></svg>